<svg xmlns="http://www.w3.org/2000/svg" xmlns:xlink="http://www.w3.org/1999/xlink" id="Слой_1" x="0" y="0" version="1.1" viewBox="0 0 192.6 174.8" style="enable-background:new 0 0 192.6 174.8" xml:space="preserve"><style type="text/css">.st1{fill:#165366}.st2{fill:url(#SVGID_1_)}.st3{fill:#7fd0b3}.st4{fill:url(#SVGID_2_)}.st5{fill:url(#SVGID_3_)}.st7{fill:#fff}</style><g><path d="M125,20.3H67.6c-19,0-34.4,15.4-34.4,34.4V112c0,19,15.4,33.6,34.4,33.6H125c19,0,34.4-14.6,34.4-33.6V54.7 C159.4,35.7,144,20.3,125,20.3z" class="st1"/><linearGradient id="SVGID_1_" x1="32.572" x2="160.028" y1="55.857" y2="129.443" gradientTransform="matrix(1 0 0 -1 0 176)" gradientUnits="userSpaceOnUse"><stop offset="0" style="stop-color:#00273c;stop-opacity:.7"/><stop offset=".604" style="stop-color:#165366;stop-opacity:0"/></linearGradient><path d="M125,20.3H67.6c-19,0-34.4,15.4-34.4,34.4V112c0,19,15.4,34.4,34.4,34.4H125c19,0,34.4-15.4,34.4-34.4V54.7 C159.4,35.7,144,20.3,125,20.3z" class="st2"/><path d="M125,20.3L125,20.3c-50.7,0-91.7,41.1-91.7,91.7l0,0c0,19,15.4,34.4,34.4,34.4H125c19,0,34.4-15.4,34.4-34.4 V54.7C159.4,35.7,144,20.3,125,20.3z" class="st3"/><linearGradient id="SVGID_2_" x1="37.9" x2="165.28" y1="46.802" y2="120.345" gradientTransform="matrix(1 0 0 -1 0 176)" gradientUnits="userSpaceOnUse"><stop offset="0" style="stop-color:#00897c;stop-opacity:.5"/><stop offset=".45" style="stop-color:#00897c;stop-opacity:0"/></linearGradient><path d="M125,20.3L125,20.3c-50.7,0-91.7,41.1-91.7,91.7l0,0c0,19,15.4,34.4,34.4,34.4H125c19,0,34.4-15.4,34.4-34.4 V54.7C159.4,35.7,144,20.3,125,20.3z" class="st4"/><linearGradient id="SVGID_3_" x1="165.28" x2="37.9" y1="120.345" y2="46.802" gradientTransform="matrix(1 0 0 -1 0 176)" gradientUnits="userSpaceOnUse"><stop offset="0" style="stop-color:#7fe7de;stop-opacity:.7"/><stop offset=".504" style="stop-color:#7fd0b3;stop-opacity:0"/></linearGradient><path d="M125,20.3L125,20.3c-50.7,0-91.7,41.1-91.7,91.7l0,0c0,19,15.4,34.4,34.4,34.4H125c19,0,34.4-15.4,34.4-34.4 V54.7C159.4,35.7,144,20.3,125,20.3z" class="st5"/><circle cx="96.3" cy="83.4" r="37.8" class="st1"/><circle cx="96.3" cy="83.4" r="12.6" class="st7"/></g></svg>